<svg xmlns="http://www.w3.org/2000/svg" xmlns:xlink="http://www.w3.org/1999/xlink" version="1.1" width="1000" height="1000" viewBox="0 0 1000 1000" xml:space="preserve"> <desc>Created with Fabric.js 3.5.0</desc> <defs> </defs> <rect x="0" y="0" width="100%" height="100%" fill="#ffffff"/> <g transform="matrix(1.2601 0 0 1.2171 499.9905 500.0137)" id="812897"> <g style="" vector-effect="non-scaling-stroke"> <g transform="matrix(1 0 0 1 0 0)" id="Ebene_1"> <path style="stroke: none; stroke-width: 1; stroke-dasharray: none; stroke-linecap: butt; stroke-dashoffset: 0; stroke-linejoin: miter; stroke-miterlimit: 4; is-custom-font: none; font-file-url: none; fill: rgb(254,0,91); fill-rule: nonzero; opacity: 1;" transform=" translate(-275, -302)" d="M 499.5 114.6 L 325 13.9 C 294.1 -4 255.9 -4 225 13.9 L 50.5 114.6 c -30.9 17.9 -50 50.9 -50 86.6 v 201.5 c 0 35.7 19.1 68.7 50 86.6 L 225 590.1 c 30.9 17.9 69.1 17.9 100 0 l 174.5 -100.8 c 30.9 -17.9 50 -50.9 50 -86.6 V 201.2 C 549.5 165.5 530.5 132.5 499.5 114.6 z M 413.5 322 l -51.9 89.9 c -7.1 12.4 -20.3 20 -34.6 20 H 223.1 c -14.3 0 -27.5 -7.6 -34.6 -20 L 136.5 322 c -7.1 -12.4 -7.1 -27.6 0 -40 l 51.9 -89.9 c 7.1 -12.4 20.3 -20 34.6 -20 h 103.8 c 14.3 0 27.5 7.6 34.6 20 l 51.9 89.9 C 420.6 294.4 420.6 309.6 413.5 322 z" stroke-linecap="round"/> </g> <g transform="matrix(1 0 0 1 -0.0124 0)" id="Ebene_1"> <path style="stroke: none; stroke-width: 1; stroke-dasharray: none; stroke-linecap: butt; stroke-dashoffset: 0; stroke-linejoin: miter; stroke-miterlimit: 4; is-custom-font: none; font-file-url: none; fill: rgb(255,241,248); fill-rule: nonzero; opacity: 1;" transform=" translate(-274.9876, -302)" d="M 413.5 322 l -51.9 89.9 c -7.1 12.4 -20.3 20 -34.6 20 H 223.1 c -14.3 0 -27.5 -7.6 -34.6 -20 L 136.5 322 c -7.1 -12.4 -7.1 -27.6 0 -40 l 51.9 -89.9 c 7.1 -12.4 20.3 -20 34.6 -20 h 103.8 c 14.3 0 27.5 7.6 34.6 20 l 51.9 89.9 C 420.6 294.4 420.6 309.6 413.5 322 z" stroke-linecap="round"/> </g> </g> </g> </svg>